<?xml version="1.0" encoding="UTF-8" standalone="no"?>
<!-- Created with Inkscape (http://www.inkscape.org/) -->

<svg
   xmlns:dc="http://purl.org/dc/elements/1.1/"
   xmlns:cc="http://creativecommons.org/ns#"
   xmlns:rdf="http://www.w3.org/1999/02/22-rdf-syntax-ns#"
   xmlns:svg="http://www.w3.org/2000/svg"
   xmlns="http://www.w3.org/2000/svg"
   xmlns:sodipodi="http://sodipodi.sourceforge.net/DTD/sodipodi-0.dtd"
   xmlns:inkscape="http://www.inkscape.org/namespaces/inkscape"
   width="256"
   height="256"
   viewBox="0 0 256 256"
   id="svg2"
   version="1.1"
   inkscape:version="0.91 r"
   sodipodi:docname="icon.svg"
   inkscape:export-filename="/home/joshua/Programming/iBrows/resources/app/images/icon.png"
   inkscape:export-xdpi="90"
   inkscape:export-ydpi="90">
  <defs
     id="defs4" />
  <sodipodi:namedview
     id="base"
     pagecolor="#ffffff"
     bordercolor="#666666"
     borderopacity="1.0"
     inkscape:pageopacity="0.0"
     inkscape:pageshadow="2"
     inkscape:zoom="0.98994949"
     inkscape:cx="-32.909418"
     inkscape:cy="145.1681"
     inkscape:document-units="px"
     inkscape:current-layer="layer1"
     showgrid="true"
     units="px"
     inkscape:showpageshadow="false"
     showguides="true"
     inkscape:guide-bbox="true"
     inkscape:window-width="1366"
     inkscape:window-height="740"
     inkscape:window-x="0"
     inkscape:window-y="0"
     inkscape:window-maximized="1">
    <inkscape:grid
       type="xygrid"
       id="grid4136"
       originy="0"
       empspacing="8" />
    <sodipodi:guide
       position="184,208"
       orientation="1,0"
       id="guide5619" />
    <sodipodi:guide
       position="72,200"
       orientation="1,0"
       id="guide5621" />
  </sodipodi:namedview>
  <metadata
     id="metadata7">
    <rdf:RDF>
      <cc:Work
         rdf:about="">
        <dc:format>image/svg+xml</dc:format>
        <dc:type
           rdf:resource="http://purl.org/dc/dcmitype/StillImage" />
        <dc:title />
      </cc:Work>
    </rdf:RDF>
  </metadata>
  <g
     inkscape:label="Layer 1"
     inkscape:groupmode="layer"
     id="layer1"
     transform="translate(0,-796.36216)">
    <path
       d="M 241.48154,927.32749 A 111.91072,111.98605 0 0 1 129.34695,1039.0862 111.91072,111.98605 0 0 1 17.660543,926.879 111.91072,111.98605 0 0 1 129.78945,815.11456 111.91072,111.98605 0 0 1 241.48156,927.31611 L 129.57104,927.1004 Z"
       sodipodi:end="0.0019262283"
       sodipodi:start="0.0020278153"
       sodipodi:ry="111.98605"
       sodipodi:rx="111.91072"
       sodipodi:cy="927.1004"
       sodipodi:cx="129.57104"
       sodipodi:type="arc"
       id="path4162"
       style="fill:#568686;fill-opacity:1;stroke:none;stroke-width:0.98900002;stroke-miterlimit:4;stroke-dasharray:none" />
    <path
       style="fill:#67adad;fill-opacity:1;stroke:none;stroke-width:0.98900002;stroke-miterlimit:4;stroke-dasharray:none"
       id="path4145"
       sodipodi:type="arc"
       sodipodi:cx="128.18208"
       sodipodi:cy="924.38373"
       sodipodi:rx="111.91072"
       sodipodi:ry="111.98605"
       sodipodi:start="0.0020278153"
       sodipodi:end="0.0019262283"
       d="M 240.09257,924.61081 A 111.91072,111.98605 0 0 1 127.95799,1036.3696 111.91072,111.98605 0 0 1 16.271581,924.16233 111.91072,111.98605 0 0 1 128.40049,812.39789 111.91072,111.98605 0 0 1 240.0926,924.59944 l -111.91052,-0.21571 z" />
    <path
       style="fill:#000000;fill-opacity:1;fill-rule:evenodd;stroke:#000000;stroke-width:0.89999998;stroke-linecap:round;stroke-linejoin:round;stroke-miterlimit:4;stroke-dasharray:none;stroke-opacity:1"
       d="M 184.0077,844.36208 C 87.108354,832.86461 48,865.28801 45.67842,869.3091 43.35684,873.33019 26.096559,940.90126 46.86249,916.64163 57.245455,904.51183 68.450685,891.30866 71.131075,881.3053 74.59918,868.36216 184.0077,844.36208 184.0077,844.36208 Z"
       id="path4179"
       inkscape:connector-curvature="0"
       sodipodi:nodetypes="czssc" />
    <path
       sodipodi:nodetypes="czssc"
       inkscape:connector-curvature="0"
       id="path5625"
       d="m 72.479961,1004.2811 c 96.899349,11.4975 136.007699,-20.92591 138.329279,-24.947 2.32158,-4.02109 19.58187,-71.59216 -1.18407,-47.33253 -10.38296,12.1298 -21.58819,25.33297 -24.26858,35.33633 -3.46811,12.94314 -112.876629,36.9432 -112.876629,36.9432 z"
       style="fill:#000000;fill-opacity:1;fill-rule:evenodd;stroke:#000000;stroke-width:0.89999998;stroke-linecap:round;stroke-linejoin:round;stroke-miterlimit:4;stroke-dasharray:none;stroke-opacity:1" />
  </g>
</svg>
